<?xml version="1.0" standalone="no"?>
<!DOCTYPE svg PUBLIC "-//W3C//DTD SVG 20010904//EN"
 "http://www.w3.org/TR/2001/REC-SVG-20010904/DTD/svg10.dtd">
<svg version="1.0" xmlns="http://www.w3.org/2000/svg"
 width="260.000000pt" height="260.000000pt" viewBox="0 0 260.000000 260.000000"
 preserveAspectRatio="xMidYMid meet">
<metadata>
Created by potrace 1.14, written by Peter Selinger 2001-2017
</metadata>
<g transform="translate(0.000000,260.000000) scale(0.100000,-0.100000)"
fill="#000000" stroke="none">
<path d="M0 1300 l0 -1300 1300 0 1300 0 0 1300 0 1300 -1300 0 -1300 0 0
-1300z m117 1179 c9 22 20 -6 15 -39 -3 -25 -7 -28 -18 -19 -11 9 -14 9 -14 0
0 -7 -4 -10 -9 -6 -5 3 -8 18 -6 33 2 15 4 32 4 37 1 6 6 3 12 -5 9 -12 12
-13 16 -1z m63 -19 c-12 -7 -12 -12 -2 -22 19 -19 14 -38 -10 -37 -17 1 -19 2
-5 6 21 6 22 12 0 28 -19 14 -10 35 15 35 15 0 15 -2 2 -10z m53 -38 c5 -7 7
-15 3 -19 -9 -10 -15 0 -20 33 -2 16 -1 22 1 14 3 -8 10 -21 16 -28z m51 22
c4 15 9 26 12 24 2 -3 -1 -19 -7 -36 -11 -33 -29 -43 -29 -18 0 8 -5 16 -12
18 -7 3 -9 11 -4 24 7 17 9 16 20 -11 l13 -30 7 29z m74 -12 c3 -29 1 -32 -22
-32 -32 0 -36 29 -5 37 21 6 21 7 3 20 -19 14 -18 15 1 11 14 -2 21 -12 23
-36z m64 13 c-2 -14 -11 -25 -21 -26 -10 0 -8 -3 7 -10 30 -11 23 -34 -9 -34
-22 0 -24 3 -20 40 4 49 7 55 30 55 14 0 17 -6 13 -25z m1118 -5 c14 -6 30
-21 35 -33 6 -12 18 -21 28 -20 11 0 23 -9 29 -23 7 -14 20 -24 32 -24 25 0
60 -37 61 -65 1 -11 7 -30 13 -42 7 -12 12 -40 12 -62 l0 -41 115 0 115 0 0
-115 0 -115 -55 0 -55 0 0 -55 0 -55 -60 0 -60 0 0 -60 0 -60 60 0 c57 0 60 1
60 25 0 28 12 32 30 10 7 -8 19 -15 26 -15 8 0 14 -9 14 -20 0 -10 9 -24 20
-30 11 -6 18 -15 15 -19 -2 -5 7 -21 21 -36 18 -20 24 -34 20 -51 -4 -16 0
-27 16 -38 12 -9 18 -16 12 -16 -6 0 -9 -66 -9 -180 l1 -180 -58 0 c-39 0 -58
4 -59 13 0 9 -2 9 -6 0 -3 -8 -24 -13 -53 -13 -27 0 -52 -4 -55 -10 -3 -5 -28
-10 -56 -10 l-49 0 0 -66 0 -65 -52 3 -53 3 -3 63 -3 63 -51 -3 -51 -3 1 -52
c0 -29 1 -57 1 -63 1 -5 15 -10 31 -10 17 0 30 -4 30 -10 0 -13 -38 -32 -50
-25 -6 3 -10 -1 -10 -10 0 -9 3 -14 8 -12 11 7 87 -36 89 -50 4 -17 -88 -18
-105 -1 -8 8 -15 8 -26 -1 -17 -14 -28 -1 -17 18 9 14 3 51 -8 51 -4 0 -12 -5
-19 -12 -9 -9 -12 -8 -12 5 0 9 -4 17 -10 17 -5 0 -10 6 -10 13 0 15 -73 39
-95 31 -19 -8 -58 25 -51 43 3 7 -6 21 -19 31 -31 25 -23 32 36 32 39 0 47 3
43 15 -4 8 -14 15 -24 15 -10 0 -21 6 -24 13 -5 9 -7 9 -12 0 -3 -7 -17 -13
-30 -13 -15 0 -24 -6 -24 -15 0 -11 -13 -15 -54 -15 -39 0 -55 4 -60 15 -7 20
-73 20 -93 -1 -14 -13 -36 -15 -142 -12 -81 3 -136 10 -153 19 -25 13 -28 19
-28 67 0 34 4 52 12 52 9 0 9 3 0 12 -8 8 -12 66 -12 195 l0 183 48 0 c51 0
82 12 63 24 -6 4 -9 12 -6 17 11 17 -6 49 -26 49 -16 0 -19 5 -14 20 3 11 -1
35 -10 54 -12 26 -14 39 -6 53 6 10 11 12 11 6 0 -7 6 -13 14 -13 8 0 16 -6
19 -14 8 -21 85 -19 96 3 9 14 10 14 17 -3 4 -11 2 -28 -6 -39 -9 -15 -10 -22
-1 -25 6 -2 11 -10 11 -18 0 -8 7 -14 15 -14 18 0 20 -20 3 -21 -7 0 -3 -5 10
-11 12 -6 22 -15 22 -20 0 -4 11 -8 24 -8 15 0 26 -7 29 -19 3 -14 16 -20 51
-23 26 -2 49 -1 52 1 2 2 4 26 4 52 l0 48 -52 3 -53 3 -3 63 -3 62 -49 0 -50
0 0 125 0 125 105 0 105 0 0 -60 0 -60 50 0 50 0 0 -64 0 -65 53 -3 52 -3 3
-62 3 -63 49 0 50 0 0 -50 0 -50 56 0 55 0 -3 53 -3 52 -37 3 c-35 3 -38 6
-38 33 0 16 -4 29 -10 29 -5 0 -10 9 -10 20 0 11 5 20 10 20 6 0 10 -8 8 -17
-3 -15 6 -18 60 -21 l62 -3 0 56 0 55 55 0 55 0 0 60 0 60 55 0 55 0 0 55 0
56 -76 -3 c-72 -2 -74 -3 -53 -19 18 -13 20 -20 11 -35 -9 -14 -12 -15 -12 -4
0 10 -3 11 -8 4 -13 -20 -43 -24 -70 -10 -15 8 -44 17 -64 21 -25 5 -38 13
-42 27 -4 18 -10 20 -43 15 -21 -4 -45 -2 -53 4 -13 8 -12 12 5 25 16 13 17
17 6 22 -22 7 -71 64 -65 74 3 4 0 8 -6 8 -6 0 -13 -6 -15 -12 -3 -8 -23 -13
-53 -12 -47 0 -82 -6 -80 -16 0 -3 -9 -20 -20 -39 -15 -24 -23 -30 -26 -20 -3
8 -10 26 -16 42 l-10 28 -152 -3 -153 -3 -3 -42 c-3 -40 -4 -42 -31 -37 -20 4
-30 1 -34 -10 -3 -8 -2 -18 3 -21 6 -4 10 -12 10 -18 0 -7 -7 -4 -14 6 -19 24
-33 21 -40 -8 -4 -14 -14 -29 -24 -32 -32 -12 -46 -63 -17 -63 8 0 15 5 15 10
0 19 28 10 33 -10 3 -11 13 -20 22 -20 10 0 15 5 12 13 -19 46 -20 50 -10 44
6 -4 10 0 9 9 -1 11 9 17 32 19 32 3 33 1 30 -29 -2 -22 -8 -31 -20 -30 -10 1
-14 -4 -11 -12 3 -8 11 -14 19 -14 8 0 14 -7 14 -16 0 -13 -7 -15 -39 -9 -25
4 -41 2 -46 -5 -5 -8 -14 -5 -30 10 l-22 21 -31 -26 c-33 -27 -43 -31 -39 -14
1 6 -10 13 -25 16 -24 3 -28 0 -28 -22 0 -21 -5 -25 -29 -25 -23 0 -30 -5 -35
-26 -9 -34 -3 -39 40 -35 23 2 34 -2 34 -11 0 -7 9 -19 20 -26 29 -18 27 -62
-3 -62 -12 0 -32 -7 -44 -15 -22 -16 -53 -11 -53 8 0 7 -4 7 -12 -1 -7 -7 -23
-12 -38 -13 l-25 -1 25 -7 c15 -5 24 -14 22 -23 -2 -12 5 -16 29 -14 24 1 32
-4 35 -17 1 -10 9 -26 18 -36 9 -9 13 -26 10 -38 -3 -11 -1 -24 5 -27 13 -8
15 -106 3 -106 -4 0 -13 5 -20 12 -9 9 -16 8 -30 -5 -31 -28 -92 -20 -92 12 0
10 -3 21 -7 24 -8 8 -43 -22 -43 -37 0 -6 -12 -20 -26 -31 -44 -34 -74 -64
-74 -73 0 -5 12 -15 26 -23 23 -12 27 -11 38 4 7 9 16 14 19 10 4 -3 7 -1 7 5
0 7 7 12 15 12 9 0 12 -6 9 -15 -4 -9 0 -15 9 -15 19 0 29 -24 15 -38 -20 -20
39 -78 75 -73 4 1 12 -10 17 -23 5 -13 14 -27 19 -31 13 -8 14 -65 2 -84 -10
-16 -4 -41 10 -41 18 0 49 -41 49 -64 0 -29 -24 -50 -46 -42 -21 8 -50 -22
-48 -49 3 -50 54 -93 54 -45 0 15 7 20 28 20 15 0 33 5 38 10 11 11 44 3 44
-10 0 -5 -17 -10 -38 -12 l-37 -3 -3 -53 -3 -53 -37 3 c-29 2 -40 9 -50 31 -7
15 -19 27 -26 27 -7 0 -23 11 -36 25 -16 17 -34 25 -57 25 -20 0 -32 4 -28 10
3 6 1 10 -5 10 -7 0 -9 8 -5 19 5 16 -1 20 -32 26 -44 7 -61 19 -86 57 -21 34
-22 101 -2 118 16 14 20 40 6 40 -17 0 -21 32 -6 66 8 20 10 34 4 34 -6 0 -17
6 -24 14 -11 11 -11 20 -1 50 7 20 16 33 21 29 4 -5 4 1 0 12 -19 46 -1 91 32
78 9 -3 13 3 13 20 0 14 7 28 16 31 8 3 13 10 9 15 -3 5 0 13 5 16 7 5 5 11
-5 19 -12 8 -18 31 -21 73 -3 56 -2 61 21 71 14 6 32 9 40 6 19 -8 45 13 45
36 0 21 51 50 86 50 13 0 26 5 29 10 4 6 11 8 16 5 14 -9 23 25 11 37 -8 8
-15 8 -26 -1 -16 -13 -56 -6 -56 10 0 5 9 9 20 9 11 0 20 5 20 11 0 6 -7 9
-15 5 -9 -3 -15 0 -15 9 0 9 -5 24 -12 34 -15 25 -5 46 31 62 25 11 30 18 26
40 -4 20 1 31 20 43 13 9 31 16 40 16 8 0 15 4 15 9 0 5 10 25 23 45 17 28 29
35 54 36 17 0 35 -4 38 -10 14 -23 25 -7 25 35 0 33 4 45 15 45 8 0 22 11 30
24 16 24 68 50 79 38 3 -3 17 5 30 17 32 30 129 36 134 9 4 -21 -28 -29 -50
-11 -10 9 -18 11 -22 4 -10 -16 33 -34 62 -25 33 9 53 12 115 15 40 2 49 6 60
27 20 42 43 50 69 25 18 -17 27 -20 42 -11 11 6 29 11 40 12 12 1 22 7 22 14
1 6 2 19 3 27 0 8 11 15 22 15 18 0 19 -2 9 -15 -7 -9 -10 -18 -7 -22 11 -10
66 18 72 37 14 44 133 74 195 50z m-552 -125 c-3 -3 -9 2 -12 12 -6 14 -5 15
5 6 7 -7 10 -15 7 -18z m1244 -23 c-3 -22 -9 -28 -25 -27 -12 1 -21 5 -19 8 1
4 2 18 2 32 0 18 4 23 15 19 9 -4 15 0 15 7 0 11 2 11 8 1 5 -7 7 -25 4 -40z
m175 -19 c-2 -16 -4 -5 -4 22 0 28 2 40 4 28 2 -13 2 -35 0 -50z m-39 35 c27
-27 -1 -73 -35 -61 -28 10 -13 68 18 72 3 1 10 -4 17 -11z m112 -28 c0 -31
-25 -47 -46 -29 -18 15 -18 34 1 53 22 21 45 9 45 -24z m-211 8 l9 -23 10 25
c15 36 13 2 -2 -40 l-13 -34 -6 29 c-3 17 -9 38 -12 48 -4 9 -4 17 -1 17 4 0
11 -10 15 -22z m-2192 -100 c-3 -7 -5 -2 -5 12 0 14 2 19 5 13 2 -7 2 -19 0
-25z m160 -10 c-3 -7 -5 -2 -5 12 0 14 2 19 5 13 2 -7 2 -19 0 -25z m1938
-124 c0 -21 -13 -44 -26 -44 -5 0 -14 10 -20 22 -10 18 -8 24 7 35 23 17 39
12 39 -13z m-835 -40 c0 -18 -47 -23 -63 -7 -11 11 -12 20 -4 38 l11 22 28
-20 c15 -11 28 -26 28 -33z m260 10 c0 -2 -16 -4 -36 -4 -19 0 -33 4 -30 8 5
8 66 4 66 -4z m546 -26 c18 -21 18 -21 0 -15 -15 6 -17 4 -11 -10 4 -10 8 -24
8 -30 0 -7 11 -13 23 -13 13 0 38 -13 56 -28 18 -16 41 -31 51 -35 19 -7 23
-47 6 -64 -8 -8 -6 -14 9 -22 26 -14 32 -52 12 -68 -13 -10 -13 -14 5 -30 11
-11 28 -22 38 -26 10 -4 17 -17 17 -31 0 -14 7 -31 15 -40 20 -19 19 -23 -5
-29 -14 -3 -18 -10 -14 -22 6 -14 8 -13 21 5 19 27 62 27 65 0 0 -11 1 -26 2
-32 1 -7 -8 -12 -19 -11 -10 1 -27 -3 -37 -8 -21 -11 -25 -41 -4 -33 16 6 46
-21 46 -42 0 -9 7 -22 15 -30 8 -9 15 -22 15 -29 0 -20 -28 -45 -50 -45 -28 0
-33 -17 -12 -38 18 -18 27 -43 36 -98 4 -26 -19 -59 -34 -49 -8 5 -6 13 6 26
13 15 14 19 3 19 -24 0 -36 -14 -41 -46 -3 -23 1 -35 15 -43 25 -16 19 -63
-10 -76 -13 -5 -23 -16 -23 -23 0 -9 6 -8 25 4 21 14 25 14 25 2 0 -17 -34
-51 -43 -42 -3 3 -14 3 -24 0 -19 -6 -24 -54 -8 -89 8 -20 -9 -45 -41 -57 -15
-6 -21 -17 -22 -39 -1 -42 -10 -68 -26 -74 -10 -4 -12 0 -9 14 5 17 0 19 -51
19 l-56 0 0 65 c0 69 -2 71 -55 67 -16 -2 -17 0 -5 8 13 8 12 10 -2 10 -22 0
-23 8 -1 32 16 18 17 18 40 -4 15 -14 23 -17 23 -8 0 7 8 18 17 25 15 11 15
17 5 40 -10 22 -10 30 -1 35 21 14 20 64 -2 81 -16 12 -20 24 -17 64 3 44 5
48 18 34 20 -22 52 -13 45 12 -4 11 -2 19 5 19 6 0 9 4 6 8 -3 5 8 6 25 4 32
-5 36 -11 17 -31 -11 -10 -10 -14 5 -22 9 -6 17 -17 17 -26 0 -14 3 -14 18 3
18 19 18 19 -2 26 -18 5 -17 6 7 7 15 1 27 7 27 14 0 6 14 18 30 25 30 14 48
51 35 71 -9 16 -45 13 -51 -4 -4 -8 -17 -15 -29 -15 -13 0 -27 -5 -30 -10 -4
-6 -11 -8 -16 -5 -5 4 -10 0 -10 -7 -1 -7 -4 1 -8 17 -10 43 -1 77 21 83 21 5
19 27 -2 27 -20 0 -22 18 -4 40 8 11 13 14 9 8 -3 -7 -1 -13 4 -13 6 0 11 5
11 10 0 6 11 10 24 10 13 0 31 3 40 6 21 8 21 34 0 34 -13 0 -14 3 -4 15 16
19 8 40 -15 40 -10 0 -20 6 -23 14 -3 10 0 12 12 8 13 -5 15 -2 10 20 -4 16
-3 24 3 20 6 -4 8 3 5 18 -2 13 -14 27 -25 31 -33 11 -52 33 -38 47 6 6 11 18
11 27 0 18 -31 55 -52 62 -11 4 -10 8 1 22 16 19 16 18 -21 34 -24 10 -58 8
-58 -4 0 -2 9 -13 20 -24 12 -12 18 -25 15 -30 -3 -6 1 -7 10 -3 13 4 16 1 13
-13 -4 -25 -68 -39 -84 -18 -6 7 -19 14 -28 14 -9 0 -25 5 -35 12 -17 10 -24
7 -50 -21 -32 -34 -66 -39 -66 -8 0 10 -7 22 -15 27 -19 12 -9 21 32 29 32 7
33 8 30 54 -1 27 2 47 8 47 5 0 10 -4 10 -10 0 -5 13 -10 28 -10 15 0 33 -5
40 -12 20 -20 27 1 27 83 0 61 3 79 15 83 8 2 15 4 16 5 0 0 9 -9 20 -21z
m-701 -13 c0 -11 -5 -19 -12 -18 -8 2 -9 -6 -3 -26 7 -26 5 -30 -15 -35 -13
-3 -26 -15 -30 -25 -6 -20 -33 -31 -77 -31 -26 0 -28 3 -28 43 0 38 3 44 30
54 17 6 30 17 30 25 0 18 39 36 75 35 23 -2 30 -7 30 -22z m-815 -35 c0 -11
-30 -34 -35 -28 -10 9 6 35 20 35 8 0 15 -4 15 -7z m879 -19 c7 -5 12 -14 9
-21 -3 -10 -7 -9 -19 2 -8 8 -21 17 -29 21 -11 4 -9 6 5 6 11 0 26 -3 34 -8z
m-785 -27 c9 -3 16 -10 16 -15 0 -13 -23 -10 -44 6 -16 12 -17 15 -4 15 9 0
23 -3 32 -6z m-14 -240 c0 -8 -10 -14 -24 -14 -19 0 -23 4 -19 19 6 22 43 17
43 -5z m1389 -3 c19 -19 19 -19 -2 -17 -12 2 -30 7 -40 11 -15 6 -16 10 -5 16
19 13 26 11 47 -10z m71 -30 c0 -14 -18 -23 -31 -15 -8 4 -7 9 2 15 18 11 29
11 29 0z m-1610 -40 c13 -25 13 -31 -2 -31 -23 0 -39 16 -32 33 8 22 21 21 34
-2z m1600 -35 c0 -3 -4 -8 -10 -11 -5 -3 -10 -1 -10 4 0 6 5 11 10 11 6 0 10
-2 10 -4z m-1715 -138 c33 -15 32 -30 -2 -22 -35 9 -43 13 -43 25 0 12 14 11
45 -3z m-27 -28 c6 0 12 -7 12 -15 0 -8 8 -15 17 -15 9 0 14 -3 10 -6 -11 -11
-77 6 -77 21 0 7 -6 16 -12 19 -7 4 -2 4 12 1 14 -2 31 -5 38 -5z m37 -101
c-6 -18 -4 -20 16 -14 22 7 22 7 6 -9 -20 -21 -21 -30 -5 -56 7 -10 9 -22 6
-26 -11 -11 -28 6 -28 29 0 11 -12 34 -27 50 -26 28 -27 29 -5 23 16 -6 22 -3
22 8 0 9 5 16 11 16 6 0 8 -9 4 -21z m128 -39 c-3 -11 -12 -20 -19 -20 -15 0
-18 18 -8 44 9 24 33 1 27 -24z m27 -49 c0 -18 -6 -31 -17 -35 -10 -3 -23 -8
-29 -11 -16 -8 -24 28 -10 47 10 14 31 25 49 27 4 1 7 -12 7 -28z m-40 -71 c0
-5 -4 -10 -9 -10 -6 0 -13 5 -16 10 -3 6 1 10 9 10 9 0 16 -4 16 -10z m-25
-39 c-3 -6 -11 -11 -17 -11 -6 0 -6 6 2 15 14 17 26 13 15 -4z m177 -10 c4 -3
4 -29 0 -56 l-8 -50 -8 35 c-4 19 -10 29 -13 23 -2 -7 -9 -13 -15 -13 -6 0 -7
7 -4 16 5 12 2 15 -11 9 -41 -17 -54 -16 -82 5 -25 17 -28 24 -18 35 9 10 30
12 82 8 39 -3 73 -8 77 -12z m-107 -110 c-9 -16 -25 -3 -18 15 4 10 9 12 15 6
6 -6 7 -15 3 -21z m975 -27 c0 -8 -5 -12 -10 -9 -6 4 -8 11 -5 16 9 14 15 11
15 -7z m450 -29 c0 -8 -4 -17 -10 -20 -6 -4 -10 5 -10 20 0 15 4 24 10 20 6
-3 10 -12 10 -20z m-1434 -11 c-1 -29 -17 -31 -39 -6 -20 22 -15 30 17 30 19
0 23 -6 22 -24z m460 -161 l114 6 0 -39 c0 -38 -1 -40 -32 -40 -37 -1 -78 -25
-56 -32 11 -4 10 -8 -1 -21 -7 -9 -11 -23 -8 -31 4 -10 1 -13 -9 -9 -7 3 -14
0 -14 -6 0 -6 -5 -11 -11 -11 -6 0 -9 12 -7 27 2 22 -2 28 -25 34 -15 4 -43
21 -62 37 -32 29 -33 30 -12 36 40 11 51 8 37 -9 -11 -13 -11 -18 0 -28 10 -9
13 -9 17 1 3 6 13 12 24 12 36 0 20 29 -23 41 -24 7 -52 22 -62 32 -19 20 -20
20 -27 1 -6 -17 -8 -17 -14 -2 -11 28 -1 53 19 50 14 -3 17 1 12 14 -3 9 -1
23 6 32 11 13 14 6 16 -43 l3 -58 115 6z m-196 -22 c0 -5 -7 -11 -14 -14 -10
-4 -13 -1 -9 9 6 15 23 19 23 5z m973 -8 c8 -7 -11 -33 -24 -33 -5 0 -9 9 -9
20 0 19 20 27 33 13z m-1071 -23 c13 -21 38 -27 38 -11 0 6 12 6 30 0 16 -6
27 -15 24 -20 -3 -5 0 -9 7 -9 10 0 10 -3 2 -11 -17 -17 -4 -39 23 -39 13 0
24 -6 24 -13 0 -7 12 -14 28 -15 15 -1 28 -7 30 -12 2 -6 15 -10 28 -10 16 0
28 -8 36 -25 6 -13 19 -27 30 -30 18 -6 22 -17 18 -44 -1 -9 4 -12 16 -7 10 4
24 0 35 -10 13 -12 22 -14 31 -7 7 6 26 13 43 17 16 4 35 16 43 27 7 10 20 19
28 19 8 0 14 5 14 10 0 6 5 10 10 10 6 0 10 -7 10 -15 0 -8 12 -18 27 -21 14
-4 35 -14 45 -23 29 -25 76 -23 95 5 13 20 24 24 64 24 43 0 48 2 47 23 -1 12
-1 36 0 53 2 31 3 32 50 32 145 1 152 2 152 16 0 24 34 75 52 80 41 10 55 -4
61 -57 5 -56 1 -70 -14 -47 -15 24 -31 -8 -25 -53 3 -27 0 -40 -10 -44 -8 -3
-21 -18 -30 -34 -13 -25 -19 -28 -50 -24 -19 2 -44 -1 -53 -7 -11 -6 -27 -8
-37 -3 -32 13 -87 15 -101 4 -7 -6 -24 -9 -37 -5 -13 3 -41 0 -62 -8 -27 -9
-47 -10 -64 -4 -14 5 -35 7 -47 5 -15 -3 -23 1 -23 9 0 23 -41 16 -47 -7 -4
-12 -11 -18 -20 -15 -7 3 -13 0 -12 -7 5 -37 -1 -43 -36 -39 -32 4 -34 6 -28
33 6 33 4 34 -28 16 -31 -16 -37 -47 -9 -47 24 0 27 -25 4 -34 -9 -3 -29 -6
-45 -6 -16 0 -29 -4 -29 -9 0 -19 -40 -21 -91 -5 -38 13 -54 14 -57 6 -2 -8
-16 -5 -43 8 -30 16 -44 18 -58 10 -25 -13 -44 -13 -36 0 3 6 -1 10 -11 10
-13 0 -15 6 -10 30 5 25 2 30 -14 30 -11 0 -24 9 -30 20 -6 12 -19 19 -31 17
-12 -1 -25 5 -29 13 -32 62 -45 127 -29 146 9 11 8 18 -2 30 -11 14 -10 16 6
14 11 -1 27 -2 35 -1 18 1 41 47 33 67 -8 21 15 17 29 -6z m608 -86 c0 -18 -4
-25 -14 -21 -8 3 -17 -1 -20 -9 -3 -8 -15 -14 -26 -14 -11 0 -20 -4 -20 -9 0
-5 -15 -9 -34 -8 -25 1 -36 6 -39 19 -3 11 -1 15 5 11 6 -3 17 2 24 12 12 15
11 20 -4 31 -14 11 -6 13 56 14 71 0 72 0 72 -26z m624 -25 c-3 -6 -16 -8 -29
-5 -15 4 -25 1 -29 -9 -3 -8 -10 -15 -16 -15 -6 0 -5 7 2 20 9 13 24 20 46 20
21 0 31 -4 26 -11z m-847 -62 c3 -5 9 -3 14 4 7 11 9 11 9 1 0 -17 -42 -32
-56 -21 -6 5 -13 7 -16 4 -3 -3 -11 1 -18 9 -10 13 -7 15 24 14 20 -1 39 -6
43 -11z m123 9 c0 -9 -30 -14 -35 -6 -4 6 3 10 14 10 12 0 21 -2 21 -4z m-36
-37 c-3 -5 -10 -7 -15 -3 -5 3 -7 10 -3 15 3 5 10 7 15 3 5 -3 7 -10 3 -15z
m-26 -7 c2 -7 -6 -12 -17 -12 -21 0 -27 11 -14 24 9 9 26 2 31 -12z m360 -119
c2 -9 -7 -13 -27 -13 -21 0 -31 5 -31 16 0 19 51 16 58 -3z m81 -17 c-12 -10
-59 -15 -59 -6 0 5 14 10 32 10 17 0 29 -2 27 -4z m61 -28 c0 -4 -6 -5 -14 -2
-8 3 -12 12 -9 21 5 12 7 12 14 1 5 -7 9 -16 9 -20z m-113 -105 c-2 -16 -4 -3
-4 27 0 30 2 43 4 28 2 -16 2 -40 0 -55z m226 34 c17 14 19 14 9 1 -11 -13
-11 -21 -1 -40 12 -23 12 -23 -9 -5 -20 18 -20 18 -25 0 -3 -10 -4 7 -4 37 0
33 2 42 4 22 4 -34 5 -34 26 -15z m67 21 c0 -13 -5 -30 -10 -38 -7 -11 -10 -5
-10 23 0 20 5 37 10 37 6 0 10 -10 10 -22z m-1165 3 c-23 -5 -31 -12 -33 -34
-4 -30 16 -44 46 -32 16 6 16 8 -3 22 l-20 15 20 -4 c33 -6 26 -42 -9 -46 -31
-4 -46 10 -46 44 0 28 19 44 50 43 23 -1 23 -2 -5 -8z m517 -19 c-15 -5 -16
-48 -2 -55 6 -3 5 -4 -2 -3 -12 2 -30 61 -21 70 3 3 12 2 21 -2 10 -4 12 -7 4
-10z m-334 -15 c2 -12 -3 -17 -18 -17 -16 0 -20 -4 -16 -16 4 -10 1 -14 -6
-12 -18 6 -22 36 -7 54 16 19 43 14 47 -9z m50 6 c-9 -10 -18 -27 -21 -38 -3
-13 -5 -9 -6 12 -1 22 4 33 17 36 9 3 19 5 21 6 2 0 -3 -7 -11 -16z m80 5 c19
-19 14 -28 -13 -28 -25 0 -34 -14 -15 -23 6 -3 5 -4 -2 -3 -18 4 -23 47 -6 57
17 12 22 11 36 -3z m78 -74 c-3 -8 -11 -14 -18 -14 -9 0 -9 3 0 12 7 7 13 30
14 53 l1 40 4 -39 c3 -21 2 -44 -1 -52z m72 48 c2 -18 -1 -32 -7 -32 -6 0 -8
7 -4 16 4 12 2 15 -8 12 -8 -3 -13 -11 -11 -17 1 -6 -2 -11 -8 -11 -18 0 -10
29 10 35 22 7 26 20 10 28 -6 3 -5 4 2 3 7 -1 14 -17 16 -34z m115 28 c-13 -5
-23 -16 -23 -25 0 -9 10 -20 23 -25 22 -10 22 -10 -3 -7 -42 4 -40 68 2 66
l23 0 -22 -9z m65 3 c-21 -5 -25 -49 -5 -56 8 -3 7 -4 -2 -3 -8 1 -19 8 -24
18 -13 20 7 49 32 47 13 -1 13 -2 -1 -6z m93 -43 c4 0 10 12 13 26 4 15 10 24
13 21 8 -8 -17 -67 -28 -67 -10 0 -30 44 -28 63 1 7 6 0 12 -15 6 -16 14 -28
18 -28z m97 38 c19 -19 14 -28 -13 -28 -31 0 -33 -17 -2 -23 19 -4 18 -4 -5
-6 -24 -1 -28 3 -28 27 0 42 22 56 48 30z m122 -23 c0 -31 -3 -35 -25 -35 -22
0 -25 4 -24 33 2 30 2 30 6 5 6 -39 33 -37 33 2 0 17 2 30 5 30 3 0 5 -16 5
-35z m80 9 c12 -32 13 -44 1 -44 -5 0 -11 11 -13 25 -4 35 -22 35 -29 -1 l-7
-29 -1 32 c-1 28 8 40 32 42 4 1 12 -11 17 -25z m-941 -4 c14 35 13 15 -1 -31
-12 -41 -23 -51 -24 -21 -1 9 -4 31 -8 47 l-7 30 15 -25 15 -25 10 25z m-602
-67 c-2 -16 -4 -3 -4 27 0 30 2 43 4 28 2 -16 2 -40 0 -55z m110 0 c-2 -16 -4
-3 -4 27 0 30 2 43 4 28 2 -16 2 -40 0 -55z m-147 57 c9 13 10 13 11 0 2 -27
-3 -55 -13 -70 -7 -11 -8 -6 -4 18 3 18 1 32 -4 32 -6 0 -10 -8 -10 -17 0 -10
-5 -25 -10 -33 -8 -11 -9 -4 -6 25 3 22 5 45 5 50 1 6 6 3 11 -5 9 -13 11 -13
20 0z m115 -45 c0 -25 -4 -30 -25 -30 -28 0 -39 27 -19 51 20 24 44 13 44 -21z"/>
<path d="M100 2450 c0 -5 5 -10 10 -10 6 0 10 5 10 10 0 6 -4 10 -10 10 -5 0
-10 -4 -10 -10z"/>
<path d="M320 2420 c0 -5 7 -10 15 -10 8 0 15 5 15 10 0 6 -7 10 -15 10 -8 0
-15 -4 -15 -10z"/>
<path d="M390 2445 c0 -8 5 -15 10 -15 6 0 10 7 10 15 0 8 -4 15 -10 15 -5 0
-10 -7 -10 -15z"/>
<path d="M390 2390 c0 -5 7 -10 15 -10 8 0 15 5 15 10 0 6 -7 10 -15 10 -8 0
-15 -4 -15 -10z"/>
<path d="M794 1699 c-3 -6 -2 -15 2 -19 12 -12 38 5 30 19 -9 14 -23 14 -32 0z"/>
<path d="M1890 1680 c0 -5 5 -10 10 -10 6 0 10 5 10 10 0 6 -4 10 -10 10 -5 0
-10 -4 -10 -10z"/>
<path d="M1640 1647 c0 -13 5 -28 12 -35 9 -9 9 -12 0 -12 -7 0 -12 -9 -12
-20 0 -12 -7 -20 -17 -20 -17 0 -18 -15 -16 -196 1 -160 4 -199 16 -211 13
-14 16 -13 28 8 l12 23 9 -24 9 -25 21 28 c12 16 24 25 27 20 3 -4 15 -16 27
-25 19 -17 21 -17 42 2 20 19 22 30 22 139 0 104 -2 120 -20 136 -45 41 -70
-7 -70 -136 0 -69 -3 -89 -14 -89 -12 0 -16 12 -33 118 -3 20 -1 32 6 32 17 0
13 59 -4 77 -18 18 -20 17 -35 -17 -8 -20 -9 -7 -6 58 4 79 13 112 23 85 5
-14 41 -17 67 -7 12 5 16 20 16 60 l0 54 -55 0 c-51 0 -55 -2 -55 -23z m30
-284 c0 -10 -7 -27 -15 -37 -15 -19 -15 -19 -15 1 0 28 10 53 21 53 5 0 9 -8
9 -17z m118 -71 c2 -46 -1 -82 -7 -82 -15 0 -21 28 -21 102 0 51 3 69 13 66 8
-3 13 -32 15 -86z m-128 -57 c0 -14 -4 -25 -10 -25 -5 0 -10 11 -10 25 0 14 5
25 10 25 6 0 10 -11 10 -25z"/>
<path d="M1084 1598 c-5 -7 -8 -26 -7 -43 1 -16 -1 -22 -3 -12 -4 11 -15 17
-32 17 l-27 0 3 -197 c4 -210 11 -244 43 -204 l18 21 7 -22 c7 -22 7 -22 29 6
l22 28 8 -29 7 -28 18 23 c23 27 26 27 33 0 6 -22 6 -22 27 4 24 31 26 48 4
48 -14 0 -15 14 -12 103 2 56 6 109 9 117 3 12 -5 15 -36 15 l-40 0 -2 -60
c-1 -70 -21 -175 -33 -175 -4 0 -11 21 -14 48 -9 65 -9 83 -1 114 4 15 4 39 1
53 -7 29 -36 34 -36 6 0 -11 -4 -23 -10 -26 -6 -4 -10 15 -10 49 0 54 14 82
26 52 3 -9 12 -16 19 -16 7 0 16 -6 18 -12 4 -10 6 -10 6 0 1 6 12 12 26 12
25 0 26 2 23 58 l-3 57 -37 3 c-22 2 -39 -2 -44 -10z m103 -251 c-3 -21 -4
-20 -15 6 -7 16 -9 33 -6 39 10 16 26 -19 21 -45z m-111 -12 c-4 -14 -11 -25
-16 -25 -14 0 -12 44 2 58 16 16 22 0 14 -33z m114 -68 c0 -41 -14 -66 -24
-42 -8 21 -8 70 0 78 13 13 24 -5 24 -36z m-120 -32 c0 -14 -4 -25 -10 -25
-11 0 -14 33 -3 43 11 11 13 8 13 -18z"/>
<path d="M1510 1546 c0 -63 1 -65 24 -60 17 3 25 -1 29 -16 4 -16 0 -20 -22
-20 -42 0 -61 -28 -61 -90 0 -30 5 -69 12 -87 10 -28 9 -41 -5 -79 l-17 -46
24 6 c14 3 28 1 32 -5 4 -7 15 -2 30 15 20 21 24 36 24 86 0 33 -5 69 -12 80
-10 15 -10 26 0 53 14 40 16 117 3 117 -6 0 -11 24 -13 53 -3 45 -6 52 -25 55
-22 3 -23 0 -23 -62z m30 -191 c0 -14 -4 -25 -10 -25 -5 0 -10 11 -10 25 0 14
5 25 10 25 6 0 10 -11 10 -25z m0 -117 c0 -23 -3 -29 -11 -21 -6 6 -8 20 -4
32 9 30 15 26 15 -11z"/>
<path d="M1793 1586 c-33 -15 -28 -45 9 -59 14 -5 17 0 15 34 -1 21 -1 38 -2
38 0 -1 -10 -6 -22 -13z"/>
<path d="M767 1573 c-16 -57 -18 -68 -8 -52 7 11 19 15 37 11 21 -4 25 -8 19
-29 -3 -14 -9 -38 -12 -54 -3 -16 -9 -29 -13 -29 -6 0 -30 -44 -30 -55 0 -2
10 -5 22 -7 47 -7 46 -128 -1 -128 -10 0 -22 -7 -25 -16 -10 -25 -7 -56 4 -49
6 4 24 0 41 -9 67 -33 75 -9 71 222 -2 121 1 182 8 182 5 0 10 4 10 9 0 5 -10
8 -22 8 -13 -1 -40 2 -60 6 -30 6 -37 5 -41 -10z m85 -375 c-3 -10 -11 -18
-19 -18 -12 0 -14 7 -7 33 4 17 6 82 5 142 -1 61 2 130 6 155 6 34 9 2 13
-125 3 -93 4 -178 2 -187z"/>
<path d="M1340 1571 c-5 -11 -10 -30 -9 -43 0 -13 3 -17 6 -10 2 6 13 12 24
12 28 0 27 -87 -1 -118 -11 -12 -20 -28 -20 -37 0 -8 9 -15 20 -15 18 0 20 -7
20 -61 0 -52 -3 -62 -19 -66 -11 -3 -25 -19 -30 -35 -14 -38 -14 -58 -1 -38 8
13 13 13 40 -2 67 -38 83 7 79 220 -2 86 -1 166 4 178 6 18 3 21 -21 21 -15 0
-39 3 -54 6 -21 6 -30 3 -38 -12z m79 -386 c-6 -5 -13 -5 -21 3 -9 9 -9 20 1
47 9 25 10 65 5 139 -3 57 -3 117 2 133 5 19 10 -25 15 -142 4 -99 3 -174 -2
-180z"/>
<path d="M1837 1536 c4 -12 8 -99 9 -194 1 -142 3 -176 16 -188 14 -14 17 -13
31 15 14 28 14 32 0 39 -13 8 -15 35 -12 180 l4 171 -28 -1 c-25 -1 -27 -4
-20 -22z"/>
<path d="M1250 1417 c0 -48 4 -66 15 -71 10 -3 15 -21 16 -53 1 -26 4 -37 6
-23 7 47 -11 203 -24 208 -10 3 -13 -14 -13 -61z"/>
<path d="M965 1447 c-6 -13 -11 -15 -21 -6 -7 6 -17 8 -21 6 -15 -9 -7 -275 8
-293 12 -15 15 -14 31 6 22 27 23 50 3 50 -12 0 -15 16 -15 88 0 56 4 82 9 73
8 -12 12 -12 25 -2 19 16 20 38 1 71 -12 22 -14 23 -20 7z"/>
<path d="M1938 1441 c-18 -15 -19 -21 -10 -55 8 -26 8 -46 0 -64 -13 -35 -14
-160 -1 -173 7 -7 15 -4 26 11 l15 22 7 -21 c3 -12 11 -21 16 -21 19 0 24 47
21 176 -4 131 -4 132 -28 137 -15 2 -34 -3 -46 -12z m32 -90 c-1 -25 -1 -25
-15 -7 -8 11 -15 29 -15 39 0 16 3 17 15 7 8 -7 15 -24 15 -39z m-2 -70 c2
-13 1 -35 -3 -49 -9 -36 -25 -10 -25 41 0 42 22 48 28 8z"/>
<path d="M236 1243 c8 -47 10 -49 28 -34 18 16 6 65 -18 69 -15 3 -16 -2 -10
-35z"/>
<path d="M1623 1103 c15 -2 37 -2 50 0 12 2 0 4 -28 4 -27 0 -38 -2 -22 -4z"/>
<path d="M1322 1061 c4 -13 18 -16 19 -4 0 4 -5 9 -11 12 -7 2 -11 -2 -8 -8z"/>
<path d="M1389 1068 c0 -2 -2 -15 -4 -29 -3 -25 -2 -26 21 -15 29 14 32 46 4
46 -11 0 -20 -1 -21 -2z"/>
<path d="M390 1051 c0 -5 7 -11 15 -15 9 -3 15 0 15 9 0 8 -7 15 -15 15 -8 0
-15 -4 -15 -9z"/>
<path d="M1308 1023 c6 -2 18 -2 25 0 6 3 1 5 -13 5 -14 0 -19 -2 -12 -5z"/>
<path d="M380 976 c0 -2 7 -6 15 -10 8 -3 15 -1 15 4 0 6 -7 10 -15 10 -8 0
-15 -2 -15 -4z"/>
<path d="M356 955 c4 -8 1 -15 -5 -15 -6 0 -11 -4 -11 -10 0 -5 11 -9 25 -8
23 2 37 18 15 18 -5 0 -10 7 -10 15 0 8 -4 15 -10 15 -5 0 -7 -7 -4 -15z"/>
<path d="M2200 2295 c0 -8 5 -15 10 -15 6 0 10 7 10 15 0 8 -4 15 -10 15 -5 0
-10 -7 -10 -15z"/>
<path d="M2334 2297 c-3 -9 -3 -25 0 -34 6 -15 8 -15 24 0 15 16 15 18 0 34
-16 15 -18 15 -24 0z"/>
<path d="M2440 2295 c-10 -12 -10 -18 0 -30 15 -18 30 -11 30 15 0 26 -15 33
-30 15z"/>
<path d="M2295 1390 c-3 -5 3 -19 13 -31 22 -23 34 -14 25 19 -6 23 -27 29
-38 12z"/>
<path d="M2255 929 c-4 -6 -5 -13 -2 -16 7 -7 27 6 27 18 0 12 -17 12 -25 -2z"/>
<path d="M2203 883 c9 -2 25 -2 35 0 9 3 1 5 -18 5 -19 0 -27 -2 -17 -5z"/>
<path d="M1060 700 c0 -5 -1 -13 -2 -17 -2 -3 5 -7 15 -9 19 -3 19 -2 11 20
-7 18 -24 22 -24 6z"/>
<path d="M720 608 c0 -10 -4 -18 -9 -18 -5 0 -11 -9 -14 -21 -4 -15 -2 -19 9
-15 9 3 14 -1 14 -14 0 -11 5 -20 10 -20 13 0 13 70 0 90 -8 13 -10 12 -10 -2z"/>
<path d="M824 534 c3 -9 6 -19 6 -22 0 -9 20 21 20 31 0 4 -7 7 -16 7 -11 0
-14 -5 -10 -16z"/>
<path d="M1642 510 c-7 -12 -8 -20 -2 -20 5 0 10 5 10 11 0 5 4 8 9 5 5 -3 11
1 15 9 8 22 -17 18 -32 -5z"/>
<path d="M975 400 c-3 -5 -1 -10 4 -10 6 0 11 5 11 10 0 6 -2 10 -4 10 -3 0
-8 -4 -11 -10z"/>
<path d="M880 240 c0 -5 7 -10 16 -10 8 0 12 5 9 10 -3 6 -10 10 -16 10 -5 0
-9 -4 -9 -10z"/>
<path d="M1015 240 c-3 -5 3 -10 15 -10 12 0 18 5 15 10 -3 6 -10 10 -15 10
-5 0 -12 -4 -15 -10z"/>
<path d="M1530 240 c0 -5 7 -10 15 -10 8 0 15 5 15 10 0 6 -7 10 -15 10 -8 0
-15 -4 -15 -10z"/>
<path d="M266 185 c-8 -21 1 -35 20 -35 10 0 14 8 12 22 -4 27 -23 34 -32 13z"/>
</g>
</svg>
